# xmcd
#
# Track frame offsets:
#	150
#	23937
#	42825
#	54755
#	69595
#	107515
#	122667
#	144020
#	158232
#	177672
#	197505
#	219390
#	244582
#	262640
#	274112
#	286322
#	312292
#
# Disc length: 4360 seconds
#
# Revision: 3
# Processed by: cddbd v1.5.2PL0 Copyright (c) Steve Scherf et al.
# Submitted via: audiograbber 1.83.01
#
DISCID=e5110611
DTITLE=Various Artist - PGD Presents Sound Savers - A Sampler
DYEAR=1991
DGENRE=Oldies
TTITLE0=Bryan Adams - Cuts Like A Knife
TTITLE1=Bon Jovi - Livin' On A Prayer
TTITLE2=Temptations - Get Ready
TTITLE3=Marvin Gaye - I Heard It Through The Grapevine
TTITLE4=Moody Blues - Tuesday Afternoon (Forever Afternoon)
TTITLE5=Kathy Mattea - Eighteen Wheels And A Dozen Roses
TTITLE6=John Cougar Mellencamp - Pink Houses
TTITLE7=Eric Clapton - After Midnight
TTITLE8=Joe Jackson - Steppin' Out
TTITLE9=Robert Palmer - Sneakin' Sally Through The Alley
TTITLE10=Police - Message In A Bottle
TTITLE11=U2 - New Year's Day
TTITLE12=Squeeze - Pulling Mussels (From The Shell)
TTITLE13=Supremes - Where Did Our Love Go
TTITLE14=Four Tops - I Can't Help Myself
TTITLE15=Rod Stewart - Maggie May
TTITLE16=Al Green - Let's Stay Together
EXTD=
EXTT0=
EXTT1=
EXTT2=
EXTT3=
EXTT4=
EXTT5=
EXTT6=
EXTT7=
EXTT8=
EXTT9=
EXTT10=
EXTT11=
EXTT12=
EXTT13=
EXTT14=
EXTT15=
EXTT16=
PLAYORDER=
